<mxfile host="app.diagrams.net" modified="2023-10-31T11:02:15.715Z" agent="Mozilla/5.0 (X11; Ubuntu; Linux x86_64; rv:109.0) Gecko/20100101 Firefox/113.0" etag="tg2XpAYaeINVnT8wsQOx" version="22.0.8" type="device">
  <diagram id="C5RBs43oDa-KdzZeNtuy" name="Page-1">
    <mxGraphModel dx="1432" dy="726" grid="1" gridSize="10" guides="1" tooltips="1" connect="1" arrows="1" fold="1" page="1" pageScale="1" pageWidth="827" pageHeight="1169" math="0" shadow="0">
      <root>
        <mxCell id="WIyWlLk6GJQsqaUBKTNV-0" />
        <mxCell id="WIyWlLk6GJQsqaUBKTNV-1" parent="WIyWlLk6GJQsqaUBKTNV-0" />
        <mxCell id="upMwP4eldat7sFlPeTQF-1" style="edgeStyle=orthogonalEdgeStyle;rounded=0;orthogonalLoop=1;jettySize=auto;html=1;" parent="WIyWlLk6GJQsqaUBKTNV-1" source="upMwP4eldat7sFlPeTQF-0" edge="1">
          <mxGeometry relative="1" as="geometry">
            <mxPoint x="414" y="170" as="targetPoint" />
          </mxGeometry>
        </mxCell>
        <mxCell id="upMwP4eldat7sFlPeTQF-0" value="INICIO" style="ellipse;whiteSpace=wrap;html=1;" parent="WIyWlLk6GJQsqaUBKTNV-1" vertex="1">
          <mxGeometry x="354" y="30" width="120" height="80" as="geometry" />
        </mxCell>
        <mxCell id="upMwP4eldat7sFlPeTQF-3" style="edgeStyle=orthogonalEdgeStyle;rounded=0;orthogonalLoop=1;jettySize=auto;html=1;" parent="WIyWlLk6GJQsqaUBKTNV-1" source="upMwP4eldat7sFlPeTQF-2" edge="1">
          <mxGeometry relative="1" as="geometry">
            <mxPoint x="414" y="290" as="targetPoint" />
          </mxGeometry>
        </mxCell>
        <mxCell id="upMwP4eldat7sFlPeTQF-2" value="&lt;div style=&quot;font-size: 18px;&quot;&gt;&lt;font style=&quot;font-size: 18px;&quot;&gt;double num1&lt;br&gt;&lt;/font&gt;&lt;/div&gt;&lt;div style=&quot;font-size: 18px;&quot;&gt;&lt;font style=&quot;font-size: 18px;&quot;&gt;double num2&lt;font style=&quot;font-size: 18px;&quot;&gt;&lt;br&gt;&lt;/font&gt;&lt;/font&gt;&lt;/div&gt;" style="rounded=1;whiteSpace=wrap;html=1;" parent="WIyWlLk6GJQsqaUBKTNV-1" vertex="1">
          <mxGeometry x="354" y="176" width="120" height="60" as="geometry" />
        </mxCell>
        <mxCell id="upMwP4eldat7sFlPeTQF-7" style="edgeStyle=orthogonalEdgeStyle;rounded=0;orthogonalLoop=1;jettySize=auto;html=1;" parent="WIyWlLk6GJQsqaUBKTNV-1" source="upMwP4eldat7sFlPeTQF-4" target="upMwP4eldat7sFlPeTQF-8" edge="1">
          <mxGeometry relative="1" as="geometry">
            <mxPoint x="414" y="520" as="targetPoint" />
          </mxGeometry>
        </mxCell>
        <mxCell id="upMwP4eldat7sFlPeTQF-4" value="&lt;font style=&quot;font-size: 14px;&quot;&gt;&lt;/font&gt;&lt;div style=&quot;font-size: 14px;&quot;&gt;num1&lt;/div&gt;&lt;div style=&quot;font-size: 14px;&quot;&gt;&lt;font style=&quot;font-size: 14px;&quot;&gt;num2&lt;/font&gt;&lt;/div&gt;" style="shape=parallelogram;perimeter=parallelogramPerimeter;whiteSpace=wrap;html=1;fixedSize=1;" parent="WIyWlLk6GJQsqaUBKTNV-1" vertex="1">
          <mxGeometry x="354" y="400" width="120" height="60" as="geometry" />
        </mxCell>
        <mxCell id="upMwP4eldat7sFlPeTQF-6" style="edgeStyle=orthogonalEdgeStyle;rounded=0;orthogonalLoop=1;jettySize=auto;html=1;" parent="WIyWlLk6GJQsqaUBKTNV-1" source="upMwP4eldat7sFlPeTQF-5" edge="1">
          <mxGeometry relative="1" as="geometry">
            <mxPoint x="414" y="400" as="targetPoint" />
          </mxGeometry>
        </mxCell>
        <mxCell id="upMwP4eldat7sFlPeTQF-5" value="&lt;div style=&quot;font-size: 14px;&quot;&gt;&lt;font style=&quot;font-size: 14px;&quot;&gt;&quot;inserte dos nÃºmeros&quot;&lt;/font&gt;&lt;/div&gt;&lt;div style=&quot;font-size: 14px;&quot;&gt;num1&lt;/div&gt;&lt;div style=&quot;font-size: 14px;&quot;&gt;&lt;font style=&quot;font-size: 14px;&quot;&gt;num2&lt;font style=&quot;font-size: 14px;&quot;&gt;&lt;br&gt;&lt;/font&gt;&lt;/font&gt;&lt;/div&gt;" style="rounded=1;whiteSpace=wrap;html=1;" parent="WIyWlLk6GJQsqaUBKTNV-1" vertex="1">
          <mxGeometry x="296" y="290" width="236" height="60" as="geometry" />
        </mxCell>
        <mxCell id="upMwP4eldat7sFlPeTQF-9" style="edgeStyle=orthogonalEdgeStyle;rounded=0;orthogonalLoop=1;jettySize=auto;html=1;" parent="WIyWlLk6GJQsqaUBKTNV-1" source="upMwP4eldat7sFlPeTQF-8" target="upMwP4eldat7sFlPeTQF-10" edge="1">
          <mxGeometry relative="1" as="geometry">
            <mxPoint x="414" y="660" as="targetPoint" />
          </mxGeometry>
        </mxCell>
        <mxCell id="arNwbgvSRb93Dl0_d0Nx-0" value="" style="edgeStyle=orthogonalEdgeStyle;rounded=0;orthogonalLoop=1;jettySize=auto;html=1;" edge="1" parent="WIyWlLk6GJQsqaUBKTNV-1" source="upMwP4eldat7sFlPeTQF-8" target="upMwP4eldat7sFlPeTQF-15">
          <mxGeometry relative="1" as="geometry" />
        </mxCell>
        <mxCell id="upMwP4eldat7sFlPeTQF-8" value="&lt;font style=&quot;font-size: 13px;&quot;&gt;num1==num2&lt;/font&gt;" style="rhombus;whiteSpace=wrap;html=1;" parent="WIyWlLk6GJQsqaUBKTNV-1" vertex="1">
          <mxGeometry x="361" y="500" width="106" height="100" as="geometry" />
        </mxCell>
        <mxCell id="upMwP4eldat7sFlPeTQF-16" style="edgeStyle=orthogonalEdgeStyle;rounded=0;orthogonalLoop=1;jettySize=auto;html=1;" parent="WIyWlLk6GJQsqaUBKTNV-1" edge="1">
          <mxGeometry relative="1" as="geometry">
            <mxPoint x="413.5" y="765" as="targetPoint" />
            <mxPoint x="413.5" y="705" as="sourcePoint" />
          </mxGeometry>
        </mxCell>
        <mxCell id="upMwP4eldat7sFlPeTQF-10" value="&lt;font style=&quot;font-size: 14px;&quot;&gt;&quot;num1 es igual a num2&quot;&lt;/font&gt;" style="shape=document;whiteSpace=wrap;html=1;boundedLbl=1;size=0.25;" parent="WIyWlLk6GJQsqaUBKTNV-1" vertex="1">
          <mxGeometry x="364" y="640" width="99" height="70" as="geometry" />
        </mxCell>
        <mxCell id="upMwP4eldat7sFlPeTQF-11" value="SI" style="text;html=1;align=center;verticalAlign=middle;resizable=0;points=[];autosize=1;strokeColor=none;fillColor=none;" parent="WIyWlLk6GJQsqaUBKTNV-1" vertex="1">
          <mxGeometry x="415" y="598" width="30" height="30" as="geometry" />
        </mxCell>
        <mxCell id="upMwP4eldat7sFlPeTQF-14" value="" style="curved=1;endArrow=classic;html=1;rounded=0;" parent="WIyWlLk6GJQsqaUBKTNV-1" edge="1">
          <mxGeometry width="50" height="50" relative="1" as="geometry">
            <mxPoint x="470" y="550" as="sourcePoint" />
            <mxPoint x="420" y="370" as="targetPoint" />
            <Array as="points">
              <mxPoint x="680" y="560" />
              <mxPoint x="700" y="410" />
              <mxPoint x="620" y="380" />
            </Array>
          </mxGeometry>
        </mxCell>
        <mxCell id="upMwP4eldat7sFlPeTQF-15" value="NO" style="text;html=1;align=center;verticalAlign=middle;resizable=0;points=[];autosize=1;strokeColor=none;fillColor=none;" parent="WIyWlLk6GJQsqaUBKTNV-1" vertex="1">
          <mxGeometry x="514" y="530" width="40" height="30" as="geometry" />
        </mxCell>
        <mxCell id="upMwP4eldat7sFlPeTQF-17" value="FIN" style="ellipse;whiteSpace=wrap;html=1;" parent="WIyWlLk6GJQsqaUBKTNV-1" vertex="1">
          <mxGeometry x="354" y="770" width="120" height="80" as="geometry" />
        </mxCell>
      </root>
    </mxGraphModel>
  </diagram>
</mxfile>
